<?xml version="1.0" encoding="UTF-8" standalone="no"?>
<svg xmlns="http://www.w3.org/2000/svg" viewBox="0 0 128 128">
  <path fill="#F7A80D" d="M38.089 77.466l-11.4 4.896 10.559 4.514 12.241-4.514-11.4-4.896zm-17.138 6.12l-.382 22.034 16.679 7.345V90.089l-16.297-6.503zm34.276 0l-15.073 5.739V110.9l15.073-6.121V83.586zm17.979-68.551L61.6 19.12l11.4 4.896 12.241-4.514-11.4-4.896zm-15.914 6.503v22.034l14.692 4.132V25.538l-14.692-4zm33.032 9.676l-.382 22.034 12.241 3.368V28.282l-11.859-7.068zm-33.032 26.549l-12.241 5.121 10.559 4.132 13.764-4.132-12.082-5.121zm-17.138 6.121l-.382 22.034 17.979 7.345V75.694l-17.597-6.121zm34.276 0l-15.073 5.738v21.516l15.073-6.121V63.884z"/>
</svg>
