<?xml version="1.0" encoding="UTF-8" standalone="no"?>
<svg
   width="256"
   height="153"
   viewBox="0 0 256 153"
   version="1.1"
   id="svg1"
   xmlns="http://www.w3.org/2000/svg"
   xmlns:svg="http://www.w3.org/2000/svg">
  <defs
     id="defs1" />
  <path
     d="m 72.392,55.461 c 0,3.071 0.327,5.561 0.901,7.387 0.654,1.906 1.471,3.892 2.614,5.958 0.409,0.817 0.573,1.634 0.573,2.371 0,1.062 -0.654,2.124 -1.962,3.186 l -6.5,4.328 c -0.9,0.586 -1.8,0.899 -2.614,0.899 -1.062,0 -2.124,-0.491 -3.186,-1.471 -1.471,-1.634 -2.778,-3.348 -3.922,-5.143 -1.144,-1.875 -2.288,-3.922 -3.431,-6.287 -8.574,10.082 -19.371,15.143 -32.392,15.143 -9.227,0 -16.614,-2.614 -22.003,-7.923 -5.389,-5.307 -8.083,-12.368 -8.083,-21.186 0,-9.391 3.348,-17.023 10.124,-22.82 6.778,-5.798 15.798,-8.656 27.085,-8.656 3.758,0 7.596,0.327 11.595,0.9 3.999,0.573 8.165,1.471 12.491,2.533 v -7.923 c 0,-8.247 -1.716,-14.043 -5.143,-17.349 -3.431,-3.348 -9.227,-4.981 -17.431,-4.981 -3.758,0 -7.596,0.45 -11.513,1.389 -3.922,0.9 -7.76,2.124 -11.513,3.594 -1.716,0.736 -2.942,1.144 -3.676,1.307 -0.736,0.164 -1.226,0.245 -1.553,0.245 -1.389,0 -2.042,-0.981 -2.042,-3.022 V 5.551 c 0,-1.553 0.245,-2.696 0.654,-3.431 0.409,-0.736 1.307,-1.471 2.696,-2.206 3.348,-1.716 7.351,-3.186 12.083,-4.328 C 21.962,-5.756 27.023,-6.327 32.412,-6.327 c 10.655,0 18.474,2.451 23.556,7.351 5.061,4.9 7.596,12.328 7.596,22.329 v 32.108 z M 37.8,45.379 c 3.676,0 7.515,-0.654 11.513,-1.962 3.999,-1.307 7.596,-3.676 10.737,-6.859 1.798,-1.962 3.186,-4.246 3.922,-6.859 0.736,-2.614 1.144,-5.716 1.144,-9.391 v -4.491 c -3.186,-0.736 -6.532,-1.389 -10.082,-1.798 -3.594,-0.409 -7.105,-0.654 -10.655,-0.654 -7.596,0 -13.148,1.471 -16.778,4.491 -3.594,3.022 -5.389,7.269 -5.389,12.819 0,5.225 1.389,9.145 4.164,11.841 2.696,2.778 6.614,4.164 11.431,4.164 z m 87.384,11.595 c -1.716,0 -2.86,-0.327 -3.676,-0.981 -0.817,-0.573 -1.553,-1.962 -2.206,-3.922 L 100.149,-0.611 c -0.654,-2.042 -0.981,-3.431 -0.981,-4.164 0,-1.634 0.817,-2.533 2.533,-2.533 h 10.328 c 1.798,0 3.022,0.327 3.758,0.981 0.817,0.654 1.471,2.042 2.124,3.922 l 13.066,51.456 12.164,-51.456 c 0.573,-1.962 1.226,-3.348 2.042,-3.922 0.817,-0.654 2.124,-0.981 3.922,-0.981 h 8.411 c 1.798,0 3.104,0.327 3.922,0.981 0.817,0.654 1.553,2.042 2.042,3.922 l 12.328,52.109 13.393,-52.109 c 0.654,-1.962 1.307,-3.348 2.124,-3.922 0.817,-0.654 2.042,-0.981 3.758,-0.981 h 9.799 c 1.634,0 2.533,0.9 2.533,2.533 0,0.491 -0.082,0.981 -0.164,1.553 -0.082,0.573 -0.245,1.307 -0.573,2.288 L 187.533,52.071 c -0.654,1.962 -1.389,3.348 -2.206,3.922 -0.817,0.654 -2.042,0.981 -3.676,0.981 h -9.063 c -1.798,0 -3.104,-0.327 -3.922,-0.981 -0.817,-0.654 -1.553,-2.042 -2.042,-3.922 L 154.588,2.038 142.588,52.071 c -0.573,1.962 -1.307,3.348 -2.042,3.922 -0.817,0.654 -2.124,0.981 -3.922,0.981 z m 108.57,2.86 c -4.654,0 -9.308,-0.573 -13.88,-1.634 -4.573,-1.062 -8.165,-2.288 -10.655,-3.676 -1.553,-0.9 -2.614,-1.798 -2.942,-2.696 -0.327,-0.9 -0.491,-1.798 -0.491,-2.696 v -4.9 c 0,-2.042 0.736,-3.022 2.124,-3.022 0.573,0 1.144,0.082 1.716,0.245 0.573,0.164 1.389,0.491 2.288,0.817 3.104,1.389 6.45,2.451 10.082,3.186 3.676,0.736 7.269,1.144 10.982,1.144 5.798,0 10.328,-1.062 13.475,-3.104 3.104,-2.042 4.736,-5.061 4.736,-8.901 0,-2.614 -0.817,-4.818 -2.451,-6.532 -1.634,-1.716 -4.736,-3.268 -9.227,-4.654 l -13.229,-4.164 c -6.696,-2.124 -11.677,-5.307 -14.779,-9.554 -3.104,-4.164 -4.654,-8.819 -4.654,-13.88 0,-4.082 0.9,-7.678 2.614,-10.737 1.716,-3.104 3.999,-5.716 6.859,-7.76 2.86,-2.124 6.123,-3.676 9.881,-4.736 3.758,-1.062 7.678,-1.553 11.841,-1.553 2.042,0 4.164,0.082 6.287,0.409 2.124,0.245 4.164,0.654 6.123,1.062 1.962,0.409 3.758,0.9 5.471,1.471 1.716,0.573 3.104,1.144 4.164,1.716 1.389,0.736 2.369,1.553 2.942,2.288 0.573,0.736 0.9,1.716 0.9,2.942 v 4.491 c 0,2.042 -0.736,3.104 -2.124,3.104 -0.736,0 -1.962,-0.409 -3.594,-1.144 -5.389,-2.451 -11.431,-3.676 -18.064,-3.676 -5.307,0 -9.472,0.9 -12.328,2.696 -2.86,1.798 -4.328,4.573 -4.328,8.492 0,2.614 0.9,4.818 2.696,6.614 1.798,1.798 5.143,3.431 9.963,4.9 l 12.983,4.164 c 6.614,2.124 11.431,5.143 14.288,9.063 2.86,3.922 4.246,8.411 4.246,13.475 0,4.164 -0.817,7.923 -2.451,11.267 -1.634,3.348 -3.922,6.205 -6.778,8.574 -2.86,2.369 -6.287,4.164 -10.328,5.389 -4.082,1.307 -8.492,1.962 -13.229,1.962 z"
     fill="#252F3E"
     id="path1" />
  <path
     d="m 232.962,118.054 c -28.147,20.76 -69.067,31.784 -104.243,31.784 -49.315,0 -93.673,-18.228 -127.226,-48.499 -2.614,-2.369 -0.327,-5.634 2.86,-3.758 36.067,20.924 80.606,33.583 126.654,33.583 31.046,0 65.22,-6.45 96.647,-19.699 4.736,-2.042 8.656,3.104 5.307,6.614 z"
     fill="#FF9900"
     id="path2" />
  <path
     d="m 244.147,105.072 c -3.594,-4.573 -23.638,-2.124 -32.719,-1.144 -2.778,0.327 -3.186,-2.042 -0.736,-3.758 15.962,-11.267 42.19,-7.923 45.211,-4.246 3.022,3.758 -0.817,29.66 -15.553,42.026 -2.288,1.962 -4.491,0.9 -3.431,-1.634 3.348,-8.328 10.819,-26.883 7.228,-31.292 z"
     fill="#FF9900"
     id="path3" />
</svg>
