<?xml version="1.0" encoding="UTF-8"?>
<svg xmlns="http://www.w3.org/2000/svg" viewBox="0 0 128 128">
  <path fill="#F7A80D" d="M38.089 77.466l-11.4 4.896 10.559 4.514 12.241-4.514-11.4-4.896zm-17.138 6.12l-.382 22.034 16.679 7.345V90.089l-16.297-6.503zm34.276 0l-15.073 5.739V110.9l15.073-6.121V83.586zm17.979-68.551L61.73 19.931l10.635 4.515 12.241-4.515-11.4-4.896zm-15.914 6.503v22.034l14.231 4.132.459-20.046-14.69-6.12zm31.828 1.224L75.654 28.5v21.652l13.466-6.121V22.762zM19.306 46.047L6.268 42.386l10.558 6.043 12.241-6.043-9.761-3.662zm-7.65 10.868l6.476 3.661v-14.69L0 45.241l11.656 11.674zm15.3 3.703l-12.241 5.662-10.559-5.662 10.559-5.661 12.241 5.661zm52.798-18.537l-13.465 7.345 13.465 7.345V42.081zm-4.514 0L61.731 37.29l-10.635 4.791 10.635 4.79 13.464-4.79zm8.04-13.464l-11.399 4.896 10.559 4.514 12.241-4.514-11.401-4.896zm-17.139 6.12l-.382 22.034 16.679 7.345V57.133l-16.297-6.503zm34.275 0L85.553 40.38v27.314l15.073-6.121V34.737z"/>
</svg>
