<?xml version="1.0" encoding="UTF-8" standalone="no"?>
<svg
   width="256"
   height="256"
   viewBox="0 0 256 256"
   version="1.1"
   id="svg1"
   xmlns="http://www.w3.org/2000/svg"
   xmlns:svg="http://www.w3.org/2000/svg">
  <defs
     id="defs1" />
  <path
     d="M 128,0 C 57.28,0 0,57.28 0,128 0,198.72 57.28,256 128,256 198.72,256 256,198.72 256,128 256,57.28 198.72,0 128,0 Z"
     fill="#3E92D2"
     id="path1" />
  <path
     d="m 128,51.2 c -42.24,0 -76.8,34.56 -76.8,76.8 0,42.24 34.56,76.8 76.8,76.8 42.24,0 76.8,-34.56 76.8,-76.8 0,-42.24 -34.56,-76.8 -76.8,-76.8 z"
     fill="#FFFFFF"
     id="path2" />
  <path
     d="m 128,76.8 c -28.16,0 -51.2,23.04 -51.2,51.2 0,28.16 23.04,51.2 51.2,51.2 28.16,0 51.2,-23.04 51.2,-51.2 0,-28.16 -23.04,-51.2 -51.2,-51.2 z"
     fill="#3E92D2"
     id="path3" />
  <path
     d="m 128,102.4 c -14.08,0 -25.6,11.52 -25.6,25.6 0,14.08 11.52,25.6 25.6,25.6 14.08,0 25.6,-11.52 25.6,-25.6 0,-14.08 -11.52,-25.6 -25.6,-25.6 z"
     fill="#FFFFFF"
     id="path4" />
</svg>
