<?xml version="1.0" encoding="UTF-8"?>
<svg xmlns="http://www.w3.org/2000/svg" viewBox="0 0 128 128">
  <path fill="#68217A" d="M117.5 33.5l.3-.2c-.6-1.1-1.5-2.1-2.4-2.6L67.1 2.9c-.8-.5-1.9-.7-3.1-.7-1.2 0-2.3.3-3.1.7l-48 27.9c-1.7 1-3.4 3.5-3.4 5.4v55.7c0 1.1.7 2.3 1.4 3.4l.1.1c.5.8 1.3 1.5 2 1.9l48.3 27.9c.8.5 2 .7 3.2.7 1.2 0 2.3-.3 3.1-.7l47.5-27.9c1.7-1 3.4-3.5 3.4-5.4V36.1c.1-.8 0-1.7-.4-2.6zM82 66v-4h5v-5h5v5h5v4h-5v5h-5v-5h-5zm17.9-1.5c0-1.5 1.2-2.7 2.7-2.7 1.5 0 2.7 1.2 2.7 2.7 0 1.5-1.2 2.7-2.7 2.7-1.5 0-2.7-1.2-2.7-2.7zm-46.3 0V47.7h4.8v16.1c0 3.2.9 5.5 2.7 6.9 1.8 1.4 3.9 2.1 6.5 2.1 2.6 0 4.8-.7 6.5-2.1 1.8-1.4 2.7-3.7 2.7-6.9V47.7h4.8V64.5c0 4.5-1.3 7.9-4 10.1-2.7 2.2-6.1 3.3-10.2 3.3-4.2 0-7.6-1.1-10.3-3.3-2.7-2.2-4-5.6-4.5-10.1z"/>
</svg>
