<?xml version="1.0" encoding="UTF-8" standalone="no"?>
<svg
   width="256"
   height="288"
   viewBox="0 0 256 288"
   version="1.1"
   id="svg1"
   xmlns="http://www.w3.org/2000/svg"
   xmlns:svg="http://www.w3.org/2000/svg">
  <defs
     id="defs1" />
  <path
     fill="#9B4F96"
     d="M 255.569,84.452376 226.67,66.976275 V 33.282937 L 127.915,0 29.15,33.282937 v 100.129123 l 98.764,33.282 98.765,-33.282 V 99.999935 l -55.333,-18.816935 55.333,-18.816935 v -33.69323 L 127.915,0 Z"
     id="path1" />
  <path
     fill="#68217A"
     d="m 127.915,66.976275 -55.333,18.816935 55.333,18.816935 55.332,-18.816935 z"
     id="path2" />
  <path
     fill="#ffffff"
     d="m 155.878,66.976275 h 11.07 v 11.07 h 5.53 v -11.07 h 11.07 v -5.53 h -11.07 v -11.07 h -5.53 v 11.07 h -11.07 z m 43.501,0 h 11.07 v 11.07 h 5.535 v -11.07 h 11.07 v -5.53 h -11.07 v -11.07 h -5.535 v 11.07 h -11.07 z"
     id="path3" />
  <path
     fill="#ffffff"
     d="m 127.915,144.06 c 27.642,0 50.042,-22.4 50.042,-50.042 0,-27.642 -22.4,-50.042 -50.042,-50.042 -27.642,0 -50.042,22.4 -50.042,50.042 0,27.642 22.4,50.042 50.042,50.042 z m 0,-88.501 c 21.259,0 38.459,17.2 38.459,38.459 0,21.259 -17.2,38.459 -38.459,38.459 -21.259,0 -38.459,-17.2 -38.459,-38.459 0,-21.259 17.2,-38.459 38.459,-38.459 z"
     id="path4" />
</svg>
