<?xml version="1.0" encoding="UTF-8" standalone="no"?>
<svg xmlns="http://www.w3.org/2000/svg" viewBox="0 0 128 128">
  <path fill-rule="evenodd" clip-rule="evenodd" fill="#3A4D54" d="M73.8 50.8h11.3v11.5h5.7c2.6 0 5.3-.5 7.8-1.3 1.2-.4 2.6-1 3.8-1.7-1.6-2.1-2.4-4.7-2.6-7.3-.3-3.5.4-8.1 2.8-10.8l1.2-1.4 1.4 1.1c3.6 2.9 6.5 6.8 7.1 11.4 4.3-1.3 9.3-1 13.1 1.2l1.5.9-.8 1.6c-3.2 6.2-9.9 8.2-16.4 7.8-9.8-24.3-31-35.8-56.8-35.8-13.3 0-25.5 5-32.5 16.8l-.1.3c-2.4 4.4-3.1 9.2-2.6 14 .2 1.8.6 3.6 1.3 5.4l.5 1.2h5.8V50.8h11.3V39.6h22.5V28.3h13.5v22.5z"/>
  <path fill="#00AADA" d="M110.4 55.1c.8-5.9-3.6-10.5-6.4-12.7-3.1 3.6-3.6 13.2 1.3 17.2-2.4 2.1-7.4 4.1-12.5 4.1H1.8c-.6 3.9.5 7.6 3 10.7 3.9 4.8 9.5 6.8 15.2 6.8 13.1 0 22.9-5.7 29.5-16.9 3.5.4 7.5.4 10.4-.4 4.7-1.2 9-4.7 11.2-8 2.1 0 4.2-.4 6.2-1.2 3.3-1.3 6.4-3.7 8.1-6.6z"/>
  <path fill="#28B8EB" d="M110.4 55.1c.8-5.9-3.6-10.5-6.4-12.7-3.1 3.6-3.6 13.2 1.3 17.2-2.4 2.1-7.4 4.1-12.5 4.1H9c-.3 9.5 7.5 16.9 18.8 16.9 13.1 0 22.9-5.7 29.5-16.9 3.5.4 7.5.4 10.4-.4 4.7-1.2 9-4.7 11.2-8 2.1 0 4.2-.4 6.2-1.2 3.3-1.3 6.4-3.7 8.1-6.6z"/>
  <path fill="#028BB8" d="M18.9 71.6c0 3.3 2.5 5.9 5.9 5.9 3.3 0 5.9-2.6 5.9-5.9s-2.6-5.9-5.9-5.9c-3.4 0-5.9 2.6-5.9 5.9"/>
  <path fill="#019BC6" d="M73 65.5c1.5-.7 3.1-1.1 4.8-1.1 5.9 0 10.7 4.7 10.7 10.6 0 5.9-4.8 10.6-10.7 10.6-1.7 0-3.3-.4-4.8-1.1-2.5-1.2-4.5-3.2-5.7-5.7h-5.1c-1.2 2.5-3.2 4.5-5.7 5.7-1.5.7-3.1 1.1-4.8 1.1-5.9 0-10.7-4.7-10.7-10.6 0-5.9 4.8-10.6 10.7-10.6 1.7 0 3.3.4 4.8 1.1 2.5 1.2 4.5 3.2 5.7 5.7h5.1c1.2-2.5 3.2-4.5 5.7-5.7z"/>
  <path fill-rule="evenodd" clip-rule="evenodd" fill="#00ACD3" d="M25.9 33.9h-4.8v-4.8h4.8v4.8zm0-9.6h-4.8v-4.8h4.8V24.3zm-4.8 14.4h-4.8v-4.8h4.8v4.8zm-4.8-4.8h-4.8v-4.8h4.8v4.8zm0-9.6h-4.8v-4.8h4.8V24.3zm9.5 9.6h-4.8v-4.8h4.8v4.8zm-14.3 0H6.6v-4.8h4.8v4.8zm4.8 4.8H6.6v-4.8h4.8v4.8zm0-14.4H6.6v-4.8h4.8V24.3zm-4.8 0H1.8v-4.8h4.8V24.3zm14.3 4.8h-4.8v-4.8h4.8v4.8zm-19.1 0H1.8v-4.8h4.8v4.8zm9.6 0h-4.8v-4.8h4.8v4.8zm4.7 4.8h-4.8v-4.8h4.8v4.8zm4.8 0h-4.8v-4.8h4.8v4.8z"/>
  <path fill-rule="evenodd" clip-rule="evenodd" fill="#23C2EE" d="M59.1 28.3h-4.8v-4.8h4.8v4.8zm-4.8 4.8h-4.8v-4.8h4.8v4.8zm-4.8-4.8h-4.8v-4.8h4.8v4.8zm-4.8 4.8h-4.8v-4.8h4.8v4.8zm-4.7-4.8h-4.8v-4.8h4.8v4.8zm-4.8 4.8h-4.8v-4.8h4.8v4.8zm14.3-4.8h-4.8v-4.8h4.8v4.8zm-4.8 4.8h-4.8v-4.8h4.8v4.8zm-4.7-4.8h-4.8v-4.8h4.8v4.8zm-4.8 4.8h-4.8v-4.8h4.8v4.8zm-4.8-4.8h-4.8v-4.8h4.8v4.8z"/>
  <path fill-rule="evenodd" clip-rule="evenodd" fill="#00ACD3" d="M49.5 50.8h-4.8v-4.8h4.8v4.8zm-4.8 4.8h-4.8v-4.8h4.8v4.8zm-4.7-4.8h-4.8v-4.8h4.8v4.8zm-4.8 4.8h-4.8v-4.8h4.8v4.8zm-4.8-4.8h-4.8v-4.8h4.8v4.8zm9.5 0h-4.8v-4.8h4.8v4.8zm-14.3 0h-4.8v-4.8h4.8v4.8zm4.8 4.8h-4.8v-4.8h4.8v4.8zm-9.6 0h-4.8v-4.8h4.8v4.8zm9.6 0h-4.8v-4.8h4.8v4.8zm0-14.4h-4.8v-4.8h4.8v4.8zm4.7 4.8h-4.8v-4.8h4.8v4.8zm4.8 0h-4.8v-4.8h4.8v4.8zm4.8 0h-4.8v-4.8h4.8v4.8zm4.7 0h-4.8v-4.8h4.8v4.8z"/>
  <path fill-rule="evenodd" clip-rule="evenodd" fill="#23C2EE" d="M49.5 41.2h-4.8v-4.8h4.8v4.8zm-4.8 4.8h-4.8v-4.8h4.8V46zm-4.7-4.8h-4.8v-4.8h4.8v4.8zm-4.8 4.8h-4.8v-4.8h4.8V46zm-4.8-4.8h-4.8v-4.8h4.8v4.8zm9.5 0h-4.8v-4.8h4.8v4.8zm-14.3 0h-4.8v-4.8h4.8v4.8zm4.8 4.8h-4.8v-4.8h4.8V46zm-9.6 0h-4.8v-4.8h4.8V46zm9.6 0h-4.8v-4.8h4.8V46zm4.7-9.6h-4.8v-4.8h4.8v4.8zm4.8 0h-4.8v-4.8h4.8v4.8zm4.8 0h-4.8v-4.8h4.8v4.8z"/>
  <path fill-rule="evenodd" clip-rule="evenodd" fill="#00ACD3" d="M82 50.8h-4.8v-4.8H82v4.8zm-4.8 4.8h-4.8v-4.8h4.8v4.8zm-4.8-4.8h-4.8v-4.8h4.8v4.8zm-4.7 4.8h-4.8v-4.8h4.8v4.8zm-4.8-4.8h-4.8v-4.8h4.8v4.8z"/>
  <path fill-rule="evenodd" clip-rule="evenodd" fill="#23C2EE" d="M82 41.2h-4.8v-4.8H82v4.8zm-4.8 4.8h-4.8v-4.8h4.8V46zm-4.8-4.8h-4.8v-4.8h4.8v4.8zm-4.7 4.8h-4.8v-4.8h4.8V46zm-4.8-4.8h-4.8v-4.8h4.8v4.8z"/>
  <path fill-rule="evenodd" clip-rule="evenodd" fill="#00ACD3" d="M72.4 50.8h-4.8v-4.8h4.8v4.8zm-4.8 4.8h-4.8v-4.8h4.8v4.8z"/>
  <path fill-rule="evenodd" clip-rule="evenodd" fill="#D4EEF1" d="M44.8 50.8H40v-4.8h4.8v4.8zm-4.8 4.8h-4.8v-4.8H40v4.8zm-4.7-4.8h-4.8v-4.8h4.8v4.8zm-4.8 4.8h-4.8v-4.8h4.8v4.8zm-4.8-4.8h-4.8v-4.8h4.8v4.8z"/>
  <path fill-rule="evenodd" clip-rule="evenodd" fill="#3A4D54" d="M78.3 48.4h2.1v2.1h-2.1v-2.1zm0-4.2h2.1v2.1h-2.1v-2.1z"/>
</svg>
