<?xml version="1.0" encoding="UTF-8"?>
<svg xmlns="http://www.w3.org/2000/svg" viewBox="0 0 128 128">
  <path fill="#5C2D91" d="M40.335 78.188H38.65v-9.65h1.685v9.65zm.897-9.65h1.685v9.65h-1.685v-9.65zm5.949 7.238h4.765v1.58H45.5v-9.65h6.335v1.58h-4.655v2.37h4.33v1.58h-4.33v2.54zm14.15-5.658h-3.13v8.07h-1.685v-8.07h-3.13v-1.58h7.945v1.58zm5.695 8.07h-1.685v-9.65h1.685v9.65zm6.335 0h-1.685v-8.07h-3.13v-1.58h7.945v1.58h-3.13v8.07zm8.87 0h-1.685v-9.65h1.685v9.65zm.895-9.65h1.685v9.65h-1.685v-9.65zm5.95 1.58v2.37h4.33v1.58h-4.33v4.12h-1.685v-9.65h6.335v1.58h-4.65zm-59.756 5.198l-1.685.398c-.05-.5-.2-.898-.45-1.188-.25-.3-.584-.45-1-.45-.417 0-.767.12-1.05.35-.284.23-.425.52-.425.87 0 .483.37.883 1.104 1.2l1.28.55c.753.32 1.32.71 1.685 1.17.365.47.55 1.02.55 1.66 0 .898-.33 1.63-.99 2.19-.66.56-1.547.84-2.664.84-1.1 0-1.972-.27-2.627-.82-.655-.55-1.042-1.3-1.17-2.26l1.685-.3c.05.65.244 1.14.58 1.47.336.33.8.49 1.4.49.55 0 .976-.15 1.3-.44.313-.29.47-.67.47-1.12 0-.33-.103-.62-.31-.86-.208-.25-.486-.45-.83-.61l-1.21-.5c-1.53-.63-2.295-1.53-2.295-2.69 0-.78.313-1.42.94-1.92.625-.5 1.434-.75 2.425-.75.916 0 1.658.22 2.227.66.568.44.944 1.05 1.13 1.83zm15.734-6.778h1.684v9.65h-1.684v-9.65zm-5.65 6.137l-2.536-6.137h1.783l1.58 4.06 1.626-4.06h1.783l-2.536 6.137v3.513h-1.7v-3.513z"/>
  <path fill="#5C2D91" d="M102.243 121.026c0-3.304 2.77-5.98 6.202-5.98a6.216 6.216 0 0 1 6.202 6.21c0 3.305-2.77 5.97-6.202 5.97s-6.202-2.665-6.202-5.97v-.23zm6.202 4.73a4.731 4.731 0 0 0 4.834-4.73 4.72 4.72 0 0 0-4.834-4.73 4.736 4.736 0 0 0-4.834 4.73 4.736 4.736 0 0 0 4.834 4.73z"/>
  <path fill="#5C2D91" d="M48.669 117.326c.972 0 1.865.14 2.68.418a6.262 6.262 0 0 1 2.055 1.18 5.219 5.219 0 0 1 1.31 1.895c.308.74.463 1.572.463 2.498 0 .882-.152 1.695-.463 2.438a5.428 5.428 0 0 1-1.31 1.935 6.34 6.34 0 0 1-2.054 1.269 7.548 7.548 0 0 1-2.68.457h-4.36v-12.09h4.36zm-.094 10.078c.611 0 1.177-.09 1.7-.268a3.733 3.733 0 0 0 1.351-.785 3.651 3.651 0 0 0 .896-1.28c.215-.508.326-1.094.326-1.755 0-.66-.11-1.242-.326-1.744a3.686 3.686 0 0 0-.896-1.269 3.825 3.825 0 0 0-1.35-.785 5.243 5.243 0 0 0-1.701-.268h-2.03v8.154h2.03zM56.65 117.326H59v12.09H56.65v-12.09zm11.905 0c.971 0 1.865.14 2.68.418a6.24 6.24 0 0 1 2.054 1.18 5.194 5.194 0 0 1 1.31 1.895c.31.74.464 1.572.464 2.498 0 .882-.153 1.695-.463 2.438a5.428 5.428 0 0 1-1.31 1.935 6.34 6.34 0 0 1-2.055 1.269 7.552 7.552 0 0 1-2.68.457h-4.36v-12.09h4.36zm-.094 10.078c.61 0 1.177-.09 1.7-.268a3.733 3.733 0 0 0 1.35-.785 3.634 3.634 0 0 0 .897-1.28c.215-.508.325-1.094.325-1.755 0-.66-.11-1.242-.325-1.744a3.67 3.67 0 0 0-.896-1.269 3.825 3.825 0 0 0-1.35-.785 5.243 5.243 0 0 0-1.702-.268h-2.03v8.154h2.03zm14.488-10.078h2.498l5.538 12.09h-2.625l-1.134-2.625h-6.103l-1.177 2.625h-2.534l5.537-12.09zm3.396 7.453l-2.153-4.995-2.207 4.995h4.36z"/>
  <path fill="#5C2D91" d="M64 2.596C30.076 2.596 2.635 30.036 2.635 63.96c0 33.926 27.44 61.365 61.365 61.365 33.926 0 61.365-27.44 61.365-61.365C125.365 30.037 97.925 2.596 64 2.596zm0 118.057c-31.279 0-56.692-25.414-56.692-56.693S32.72 7.268 64 7.268s56.692 25.414 56.692 56.692c0 31.279-25.413 56.693-56.692 56.693z"/>
</svg>
