<?xml version="1.0" encoding="UTF-8" standalone="no"?>
<svg xmlns="http://www.w3.org/2000/svg" viewBox="0 0 128 128">
  <path fill="#512BD4" d="M61.195 0h4.953c12.985.982 24.91 6.718 33.937 16.13 9.12 9.274 14.934 21.489 16.303 34.423.22 2.133.291 4.275.412 6.416-.11 2.25-.192 4.498-.427 6.738-1.308 12.988-6.982 25.295-16.036 34.607-9.17 9.497-21.52 15.49-34.604 16.686h-4.953c-12.987-.982-24.91-6.718-33.937-16.13-9.12-9.274-14.934-21.489-16.303-34.423-.22-2.133-.291-4.275-.412-6.416.11-2.25.192-4.498.427-6.738 1.308-12.988 6.982-25.295 16.036-34.607C36.761 7.189 49.112 1.196 62.195 0z"/>
  <path fill="#fff" d="M65.975 21.486c1.699.233 3.45.299 5.093.697 6.596 1.518 12.47 6.093 15.386 12.176 1.724 3.517 2.49 7.445 2.355 11.327-.134 6.424-2.847 12.691-7.401 17.342-5.608 5.93-14.383 8.755-22.55 7.37-7.189-1.17-13.678-5.643-17.147-12.012-1.834-3.354-2.767-7.167-2.686-10.967.087-7.468 4.106-14.661 10.37-18.856 4.665-3.147 10.475-4.635 16.08-4.36 0 3.413.088 6.826.134 10.24-3.06-.087-6.22.296-8.988 1.585-3.913 1.776-7.012 5.382-8.155 9.531-.93 3.11-.876 6.529.192 9.604 1.773 5.471 6.97 9.562 12.747 10.24 4.93.576 10.11-.843 13.631-4.308 3.096-3.006 4.801-7.307 4.703-11.641-.087-4.256-1.91-8.414-5.03-11.327-2.646-2.48-6.18-3.913-9.755-4.221.11-3.413.11-6.826.11-10.24.044 0 .134 0 .222.044z"/>
  <path fill="#fff" d="M40.42 68.854c-3.448-3.203-6.908-6.392-10.342-9.608 2.258-2.235 4.517-4.47 6.775-6.705 3.413 3.147 6.84 6.28 10.254 9.427-2.235 2.295-4.47 4.59-6.687 6.886z"/>
  <path fill="#fff" d="M27.093 57.45c-1.257-1.233-2.513-2.467-3.77-3.7.738-.755 1.476-1.51 2.214-2.265 1.24 1.214 2.48 2.428 3.72 3.642-.722.774-1.443 1.548-2.164 2.322z"/>
  <path fill="#fff" d="M99.37 73.493c-.233-1.925-.349-3.85-.715-5.753-.41-1.869-1.145-3.738-2.432-5.2-1.054-1.2-2.507-2.022-4.083-2.345-1.366-.256-2.754-.256-4.12-.256-2.09.023-4.18.023-6.27.023v27.246h5.293V75.953c.744 0 1.51.023 2.255.023 1.087.023 2.196.023 3.26-.186 1.064-.21 2.06-.64 2.856-1.4.855-.855 1.308-2.022 1.6-3.19.303-1.19.396-2.4.465-3.62.023-.023-.023-.047-.047-.07-.023-.023-.023-.023-.047-.023zm-5.2.326c-.163.855-.442 1.756-1.087 2.356-.642.6-1.52.877-2.4.923-.877.047-1.753.047-2.63.047-.35 0-.7 0-1.05-.023v-9.776c.63-.023 1.26-.023 1.89-.023 1.847-.023 3.97-.07 5.316 1.495.63.738.901 1.73 1.017 2.684.14 1.087.14 2.197-.023 3.307 0 .023-.023.023-.023.047-.023-.023-.023-.023-.023-.047z"/>
</svg>
