<?xml version="1.0" encoding="UTF-8" standalone="no"?>
<svg xmlns="http://www.w3.org/2000/svg" viewBox="0 0 128 128">
  <path fill="#4055A5" d="M64 0C28.7 0 0 14.4 0 32v64c0 17.6 28.7 32 64 32s64-14.4 64-32V32c0-17.6-28.7-32-64-32zm0 16c28.7 0 48 9.6 48 16s-19.3 16-48 16-48-9.6-48-16 19.3-16 48-16zm-48 28.8c9.6 7.5 27.4 11.2 48 11.2s38.4-3.7 48-11.2v19.5c0 6.4-19.3 16-48 16s-48-9.6-48-16V44.8zM64 112c-28.7 0-48-9.6-48-16V76.8c9.6 7.5 27.4 11.2 48 11.2s38.4-3.7 48-11.2v19.2c0 6.4-19.3 16-48 16z"/>
</svg>
