<?xml version="1.0" encoding="UTF-8" standalone="no"?>
<svg
   width="256"
   height="256"
   viewBox="0 0 256 256"
   version="1.1"
   id="svg1"
   xmlns="http://www.w3.org/2000/svg"
   xmlns:svg="http://www.w3.org/2000/svg">
  <defs
     id="defs1" />
  <path
     d="M 244.658,0 H 11.342 C 5.073,0 0,5.073 0,11.342 v 233.316 C 0,250.927 5.073,256 11.342,256 h 233.316 c 6.269,0 11.342,-5.073 11.342,-11.342 V 11.342 C 256,5.073 250.927,0 244.658,0 Z"
     fill="#2684FF"
     id="path1" />
  <path
     d="m 127.761,191.471 -44.366,-44.366 h 44.366 z"
     fill="white"
     opacity="0.3"
     id="path2" />
  <path
     d="m 127.761,102.739 -44.366,44.366 h 44.366 z"
     fill="white"
     opacity="0.5"
     id="path3" />
  <path
     d="m 83.395,147.105 44.366,44.366 h 44.366 z"
     fill="white"
     opacity="0.5"
     id="path4" />
  <path
     d="m 172.127,147.105 -44.366,-44.366 v 44.366 z"
     fill="white"
     opacity="0.7"
     id="path5" />
  <path
     d="m 127.761,147.105 44.366,44.366 V 147.105 Z"
     fill="white"
     opacity="0.7"
     id="path6" />
  <path
     d="m 127.761,102.739 v 44.366 h 44.366 z"
     fill="white"
     id="path7" />
  <path
     d="m 127.761,147.105 v 44.366 l 44.366,-44.366 z"
     fill="white"
     opacity="0.8"
     id="path8" />
</svg>
