<?xml version="1.0" encoding="UTF-8"?>
<svg xmlns="http://www.w3.org/2000/svg" viewBox="0 0 128 128">
  <path fill="#BFBFBF" d="M95.11 25.35c-.056-.175-.113-.35-.169-.525-.169-.525-.338-1.05-.563-1.575-.113-.35-.282-.7-.45-1.05-.113-.175-.169-.35-.282-.525l-.563-1.05c-.169-.35-.394-.7-.619-1.05l-.338-.525c-.338-.525-.675-1.05-1.069-1.575-.113-.175-.225-.35-.338-.525-.281-.35-.563-.7-.9-1.05-.113-.175-.281-.35-.394-.525-.338-.35-.675-.7-1.069-1.05l-.338-.35c-.506-.525-1.069-1.05-1.631-1.575-.113-.175-.281-.35-.45-.525-.338-.35-.731-.7-1.125-1.05-.169-.175-.338-.35-.563-.525-.394-.35-.788-.7-1.238-1.05-.169-.175-.394-.35-.563-.525-.45-.35-.9-.7-1.35-1.05-.169-.175-.394-.35-.619-.525-.506-.35-1.013-.7-1.575-1.05-.169-.175-.394-.35-.619-.525-.563-.35-1.125-.7-1.744-1.05-.169-.175-.394-.35-.619-.525-.675-.35-1.35-.7-2.081-1.05-.169-.175-.394-.35-.619-.525-.9-.35-1.8-.7-2.756-1.05h-.056C66.15 1.05 59.938 0 53.669 0c-2.756 0-5.513.175-8.213.525C20.7 3.15 1.575 17.981 1.575 35.438c0 1.4.113 2.8.338 4.2.9 5.6 3.6 10.85 7.763 15.4.9 1.05 1.913 2.1 2.925 3.15.338.35.675.7 1.069 1.05 1.069 1.05 2.194 2.1 3.375 3.15.338.35.675.7 1.069 1.05 1.35 1.05 2.756 2.1 4.219 3.15.338.35.675.7 1.069 1.05 1.688 1.05 3.375 2.1 5.175 3.15.338.35.675.7 1.069 1.05 2.081 1.05 4.219 2.1 6.413 3.15.338.35.675.7 1.069 1.05 2.644 1.05 5.344 2.1 8.156 3.15.338.35.675.7 1.069 1.05 3.488 1.05 7.031 2.1 10.688 3.15.338.35.675.7 1.069 1.05 5.063 1.05 10.238 2.1 15.525 3.15.338.35.675.7 1.069 1.05 15.3 1.05 31.5 2.1 48.094 3.15.338.35.675.7 1.069 1.05v-61.6c-.113 0-.169 0-.225-.175-1.069-.175-2.138-.35-3.15-.525zm-48.488 36.4c-13.5 0-24.413-6.65-24.413-14.875S33.122 32 46.622 32s24.413 6.65 24.413 14.875S60.122 61.75 46.622 61.75z"/>
  <path fill="#B71C1C" d="M46.622 32c-13.5 0-24.413 6.65-24.413 14.875S33.122 61.75 46.622 61.75s24.413-6.65 24.413-14.875S60.122 32 46.622 32zM28.35 70c-1.181-1.05-2.306-2.1-3.375-3.15 1.069 1.05 2.194 2.1 3.375 3.15zm-4.444-4.2c-.394-.35-.731-.7-1.069-1.05.338.35.675.7 1.069 1.05zm-3.994-4.2c-1.013-1.05-2.025-2.1-2.925-3.15.9 1.05 1.913 2.1 2.925 3.15zm-3.938-7.35c-.225-1.4-.338-2.8-.338-4.2.113 1.4.225 2.8.338 4.2zm74.138-28.9c.169.525.338 1.05.563 1.575-.225-.525-.394-1.05-.563-1.575zm1.575 3.15c.169.35.281.7.45 1.05-.169-.35-.281-.7-.45-1.05zm1.069 2.1c.225.35.394.7.619 1.05-.225-.35-.394-.7-.619-1.05zm1.069 2.1c.281.35.563.7.9 1.05-.338-.35-.619-.7-.9-1.05zm1.069 2.1c.338.35.675.7 1.069 1.05-.394-.35-.731-.7-1.069-1.05zm1.069 2.1c.394.35.788.7 1.238 1.05-.45-.35-.844-.7-1.238-1.05zm1.35 2.1c.45.35.9.7 1.35 1.05-.45-.35-.9-.7-1.35-1.05zm1.575 2.1c.506.35 1.013.7 1.575 1.05-.563-.35-1.069-.7-1.575-1.05zm1.8 2.1c.563.35 1.125.7 1.744 1.05-.619-.35-1.181-.7-1.744-1.05zm2.138 2.1c.675.35 1.35.7 2.081 1.05-.731-.35-1.406-.7-2.081-1.05zm2.756 2.1c.9.35 1.8.7 2.756 1.05-.956-.35-1.856-.7-2.756-1.05zM95.11 25.35c.056.175.113.35.169.525-.056-.175-.113-.35-.169-.525z"/>
  <path fill="#BFBFBF" d="M23.906 65.8c-.394-.35-.731-.7-1.069-1.05.338.35.675.7 1.069 1.05zm5.175 4.2c-.394-.35-.731-.7-1.069-1.05.338.35.675.7 1.069 1.05zm5.175 4.2c-.394-.35-.731-.7-1.069-1.05.338.35.675.7 1.069 1.05zm6.413 4.2c-.394-.35-.731-.7-1.069-1.05.338.35.675.7 1.069 1.05zm8.156 4.2c-.394-.35-.731-.7-1.069-1.05.338.35.675.7 1.069 1.05zm10.688 4.2c-.394-.35-.731-.7-1.069-1.05.338.35.675.7 1.069 1.05zm15.525 4.2c-.394-.35-.731-.7-1.069-1.05.338.35.675.7 1.069 1.05zm48.094 4.2c-.394-.35-.731-.7-1.069-1.05.338.35.675.7 1.069 1.05z"/>
</svg>
