<?xml version="1.0" encoding="UTF-8"?>
<svg xmlns="http://www.w3.org/2000/svg" viewBox="0 0 512 512">
  <rect width="512" height="512" rx="50" fill="#3178c6"/>
  <path fill="#fff" d="M317 407v50c8.1 4.2 18 7.3 29 9.4s23 3.1 35 3.1c12 0 23-1.1 34-3.4 11-2.3 20-6.1 28-11 8.1-5.3 15-12 19-21s7.1-19 7.1-32c0-9.1-1.4-17-4.1-24s-6.6-13-12-18c-5.1-5.3-11-10-18-14s-15-8.2-24-12c-6.6-2.7-12-5.3-18-7.9-5.2-2.6-9.6-5.2-13-7.8-3.4-2.7-6-5.5-7.8-8.4-1.8-3-2.7-6.7-2.7-11 0-3.9 0.9-7.3 2.7-10 1.8-2.9 4.5-5.3 8-7.3s7.5-3.5 12-4.4c4.8-1.1 10-1.6 16-1.6 4.4 0 9 0.5 14 1.4 5 1 10 2.4 15 4.3 5.1 1.8 10 4.1 15 6.7 5 2.6 9.5 5.5 14 8.6v-47c-7.6-2.9-16-5.1-25-6.5s-19-2.1-31-2.1c-12 0-23 1.3-34 3.8s-20 6.5-28 12c-8.1 5.4-14 12-19 21-4.7 8.4-7 18-7 30 0 15 4.3 28 13 38 8.6 11 22 19 39 27 6.9 2.8 13 5.6 19 8.3s11 5.5 15 8.4c4.3 2.9 7.7 6.1 10 9.5 2.5 3.4 3.8 7.4 3.8 12 0 3.8-0.9 7.1-2.6 9.8s-4.2 5-7.3 6.7c-3.1 1.7-6.8 3-11 3.8-4.2 0.9-8.5 1.3-13 1.3-11 0-22-1.9-32-5.7-11-3.8-21-9.5-28.1-15.44z"/>
  <path fill="#fff" d="M155 331v-66h-40v-40h40v-66h48v66h40v40h-40v66h-48z"/>
</svg>
